# generated from PmQm by Jehee Lee
:FULLY-SPECIFIED
:DEGREES
25
root -95.46949091 39.1777 -104.6195526 -135.6305528 85.82603237 -137.3483974
RightUpLeg -27.57395926 4.62276439 0.6111107075
RightLeg 7.531379942 3.623523203 -0.2521208049
RightFoot 4.226325959 1.275450881 6.302454104
RightToes 2.32829e-010 -1.59028e-015 9.93923e-017
Spine -6.85432 -3.93289 -3.34176
Spine1 14.3347 -4.99557 2.71049
HEad -11.8839 3.69924 1.92702
LeftShoulder1 9.93923e-017 0 1.22299e-017
LeftArm 31.3924 31.9291 -79.3629
LeftForeArm -49.1161 -31.3382 19.2908
LeftHand 1.10187 8.58115 -8.18218
RightShoulder 1.98785e-016 -4.96962e-017 1.55301e-017
RightArm 20.48 -54.6662 85.6056
RightForeArm -45.6013 19.6551 -11.7113
RightHand 1.13703 -10.3835 -5.07374
LeftUpLeg -0.419985697 1.892450925 2.292382176
LeftLeg 19.16489577 0 0
LeftFoot -21.63919017 -9.513556049 1.583131765
LeftToes 8.82235e-011 9.04645e-011 1.87288e-011
26
root -94.53502402 39.0304 -104.606042 -137.474818 85.29979748 -139.4846395
RightUpLeg -28.20503874 4.696976054 0.7423851668
RightLeg 5.176144088 2.103332693 -0.09203907704
RightFoot 4.021336633 1.11630296 5.935487929
RightToes 2.32829e-010 -1.59028e-015 9.93923e-017
Spine -7.08055 -4.13499 -3.2466
Spine1 14.3153 -5.35112 3.23755
HEad -11.98 3.66708 1.97472
LeftShoulder1 9.93923e-017 0 1.22299e-017
LeftArm 27.3147 30.5453 -79.2874
LeftForeArm -46.5968 -33.7285 20.4593
LeftHand 1.0837 8.19171 -7.2459
RightShoulder 1.98785e-016 -4.96962e-017 1.55301e-017
RightArm 20.3545 -56.0639 84.9334
RightForeArm -44.5413 19.5369 -10.987
RightHand 1.13545 -10.3469 -5.16769
LeftUpLeg 0.8430037338 2.105623718 2.9492897
LeftLeg 18.96019758 0 0
LeftFoot -22.40924004 -10.24069377 1.457706612
LeftToes 8.82235e-011 9.04645e-011 1.87288e-011
27
root -93.53178508 38.8535 -104.5799989 -139.9503686 84.68230448 -142.3019816
RightUpLeg -28.97885362 4.568856127 0.7213723779
RightLeg 4.443791417 0 0
RightFoot 3.372219439 1.605219761 5.502517393
RightToes 2.32829e-010 -1.59028e-015 9.93923e-017
Spine -6.98808 -4.36661 -3.14957
Spine1 13.9345 -5.73284 3.78255
HEad -12.4102 3.65654 1.98842
LeftShoulder1 9.93923e-017 0 1.22299e-017
LeftArm 24.3403 29.0586 -79.4685
LeftForeArm -44.6825 -35.323 21.2933
LeftHand 1.06531 7.8645 -6.29535
RightShoulder 1.98785e-016 -4.96962e-017 1.55301e-017
RightArm 19.7601 -57.1675 84.0761
RightForeArm -42.7934 19.3172 -9.89557
RightHand 1.0989 -10.1433 -4.92564
LeftUpLeg 2.008752167 2.276671524 3.70641221
LeftLeg 19.05385255 0 0
LeftFoot -23.29241031 -11.0568087 1.528456352
LeftToes 8.82235e-011 9.04645e-011 1.87288e-011
28
root -92.4499881 38.6728 -104.5184475 -142.2389651 84.07750771 -144.9402772
RightUpLeg -29.90928692 4.508476463 0.7686052884
RightLeg 5.456296447 0 0
RightFoot 2.67251808 0.4996607532 4.755372097
RightToes 2.32829e-010 -1.59028e-015 9.93923e-017
Spine -6.68611 -4.58024 -3.31171
Spine1 13.4669 -6.15517 4.58465
HEad -13.0955 3.7662 2.08056
LeftShoulder1 9.93923e-017 0 1.22299e-017
LeftArm 22.0485 27.7486 -79.7317
LeftForeArm -43.8172 -36.3038 21.8083
LeftHand 1.08024 7.98412 -5.64279
RightShoulder 1.98785e-016 -4.96962e-017 1.55301e-017
RightArm 18.239 -57.7244 83.1398
RightForeArm -40.1514 18.8906 -8.16359
RightHand 1.07572 -10.0474 -4.61976
LeftUpLeg 3.250429766 2.455806661 4.598568253
LeftLeg 19.17266222 0 0
LeftFoot -23.79767471 -12.1920432 0.8322832848
LeftToes 8.82235e-011 9.04645e-011 1.87288e-011
29
root -91.26981056 38.5138 -104.40576 -144.7690519 83.60565369 -147.9062066
RightUpLeg -30.81028581 4.382800417 0.8372569616
RightLeg 7.950924828 0 0
RightFoot 3.420155685 0.4667076712 3.139981364
RightToes 2.32829e-010 -1.59028e-015 9.93923e-017
Spine -6.37915 -4.77364 -3.91711
Spine1 12.9686 -6.61361 5.68952
HEad -13.7206 4.0375 2.18808
LeftShoulder1 9.93923e-017 0 1.22299e-017
LeftArm 20.3982 26.9827 -79.9189
LeftForeArm -43.489 -36.8171 22.0771
LeftHand 1.08937 8.04428 -5.17567
RightShoulder 1.98785e-016 -4.96962e-017 1.55301e-017
RightArm 15.6894 -57.7756 82.2044
RightForeArm -36.6142 18.1676 -5.9072
RightHand 1.07347 -10.0883 -4.38396
LeftUpLeg 4.505032804 2.620515192 5.54402469
LeftLeg 19.33065873 0 0
LeftFoot -23.1657164 -13.69980941 -0.6210782813
LeftToes 8.82235e-011 9.04645e-011 1.87288e-011
30
root -89.97218568 38.3966 -104.2612989 -145.7753521 83.20569306 -149.4200556
RightUpLeg -31.55922798 4.150510235 1.178032849
RightLeg 11.40757357 0 0
RightFoot 5.665224591 1.207300075 0.9841785046
RightToes 2.32829e-010 -1.59028e-015 9.93923e-017
Spine -6.15958 -4.89657 -4.19099
Spine1 12.336 -6.93421 6.55483
HEad -14.1271 4.24096 2.1667
LeftShoulder1 9.93923e-017 0 1.22299e-017
LeftArm 19.7164 26.853 -80.042
LeftForeArm -43.1754 -36.6073 21.9922
LeftHand 1.06477 7.76082 -4.7306
RightShoulder 1.98785e-016 -4.96962e-017 1.55301e-017
RightArm 12.3418 -57.6001 81.4578
RightForeArm -32.75 17.2144 -3.70344
RightHand 1.08188 -10.1815 -4.26746
LeftUpLeg 5.632410507 2.687511783 6.70499022
LeftLeg 19.8786755 0 0
LeftFoot -21.23325546 -15.23726613 -2.185996854
LeftToes 8.82235e-011 9.04645e-011 1.87288e-011
31
root -88.55799434 38.331 -104.1189559 -142.4511929 82.77438602 -146.3954747
RightUpLeg -31.94080093 4.049310724 2.032751461
RightLeg 15.51245962 0 0
RightFoot 7.030870712 1.994472805 -0.8834562222
RightToes 2.32829e-010 -1.59028e-015 9.93923e-017
Spine -6.0096 -4.84549 -2.99364
Spine1 11.7693 -6.86911 6.47386
HEad -14.3821 4.19435 2.03091
LeftShoulder1 9.93923e-017 0 1.22299e-017
LeftArm 20.27 27.1999 -80.2786
LeftForeArm -43.1168 -35.1375 21.2897
LeftHand 1.02497 7.34948 -4.17801
RightShoulder 1.98785e-016 -4.96962e-017 1.55301e-017
RightArm 8.28538 -57.2027 81.1667
RightForeArm -28.9102 16.0948 -1.73455
RightHand 1.0956 -10.2878 -4.26061
LeftUpLeg 6.693978888 2.083706498 8.192024458
LeftLeg 21.06122416 0 0
LeftFoot -18.05057892 -15.77954527 -4.663746101
LeftToes 8.82235e-011 9.04645e-011 1.87288e-011
32
root -87.07968743 38.3134 -103.9868739 -135.4502745 82.34085868 -139.2476727
RightUpLeg -31.67333175 4.448441002 3.251497961
RightLeg 19.81115058 0 0
RightFoot 5.39581927 2.236873851 -2.226261264
RightToes 2.32829e-010 -1.59028e-015 9.93923e-017
Spine -5.86574 -4.55183 -0.434274
Spine1 11.5826 -6.38203 5.50687
HEad -14.3658 4.02922 1.95824
LeftShoulder1 9.93923e-017 0 1.22299e-017
LeftArm 22.0946 27.9776 -80.7937
LeftForeArm -44.0256 -32.2396 19.9355
LeftHand 0.980782 6.93349 -3.63932
RightShoulder 1.98785e-016 -4.96962e-017 1.55301e-017
RightArm 4.20741 -56.2954 81.4352
RightForeArm -25.5027 14.8596 0.0714255
RightHand 1.10265 -10.3617 -4.18607
LeftUpLeg 7.453381022 -0.42458708 9.385674578
LeftLeg 23.42497303 0 0
LeftFoot -13.25879995 -13.19868089 -8.83183074
LeftToes 8.82235e-011 9.04645e-011 1.87288e-011
33
root -85.63076357 38.3136 -103.8527392 -128.5082112 81.9953959 -131.8339612
RightUpLeg -30.80230703 5.415253114 4.391920982
RightLeg 23.7275024 0 0
RightFoot 1.579679544 1.851835321 -3.234705221
RightToes 2.32829e-010 -1.59028e-015 9.93923e-017
Spine -5.60367 -4.03319 2.19643
Spine1 11.5228 -5.66785 4.51971
HEad -13.7354 3.8321 2.02318
LeftShoulder1 9.93923e-017 0 1.22299e-017
LeftArm 25.2954 29.3554 -81.5776
LeftForeArm -46.7922 -28.5808 18.3399
LeftHand 0.928921 6.47294 -3.34281
RightShoulder 1.98785e-016 -4.96962e-017 1.55301e-017
RightArm 2.13834 -54.8529 82.092
RightForeArm -23.9954 14.0853 1.13721
RightHand 1.09426 -10.3499 -3.99131
LeftUpLeg 6.843561793 -3.790826574 10.18403385
LeftLeg 28.56460703 0 0
LeftFoot -6.431878839 -7.93905284 -11.80484985
LeftToes 8.82235e-011 9.04645e-011 1.87288e-011
